# xmcd CD database file
#
# Track frame offsets:
#	182
#	26617
#	60937
#	81170
#	102027
#	125317
#	150730
#	168780
#	186275
#	219995
#	250495
#
# Disc length: 3834 seconds
#
# Revision: 3
# Processed by: cddbd v1.5.2PL0 Copyright (c) Steve Scherf et al.
# Submitted via: CDex 1.51
#
DISCID=840ef80b
DTITLE=Scott Henderson - Tore Down House
DYEAR=1997
DGENRE=Blues
TTITLE0=Dolemite
TTITLE1=Tore Down House
TTITLE2=Meter Maid
TTITLE3=I Hate You
TTITLE4=Gittar School
TTITLE5=Xanax
TTITLE6=Continuum
TTITLE7=You Got Off On Me
TTITLE8=Mocha
TTITLE9=Harpoon
TTITLE10=Same As You
EXTD=YEAR: 1997
EXTT0=
EXTT1=
EXTT2=
EXTT3=
EXTT4=
EXTT5=
EXTT6=
EXTT7=
EXTT8=
EXTT9=
EXTT10=
PLAYORDER=
